<svg width="273" height="112" viewBox="0 0 273 112" fill="none" xmlns="http://www.w3.org/2000/svg">
<path d="M130.496 26.8319H5.80425V27.2992H130.496V26.8319Z" fill="white"/>
<path d="M25.4853 12.2813H25.0183V112H25.4853V12.2813Z" fill="white"/>
<path d="M117.953 12.2813H117.486V112H117.953V12.2813Z" fill="white"/>
<path d="M88.5982 48.0572H88.1312V111.933H88.5982V48.0572Z" fill="white"/>
<path d="M88.5982 12.2813H88.1312V29.8355H88.5982V12.2813Z" fill="white"/>
<path d="M75.7221 50.5268H75.2551V112H75.7221V50.5268Z" fill="white"/>
<path d="M75.7221 12.1478H75.2551V25.8308H75.7221V12.1478Z" fill="white"/>
<path d="M65.915 111.333H65.4479V110.398H65.915V111.333ZM65.915 109.397H65.4479V108.462H65.915V109.397ZM65.915 107.461H65.4479V106.527H65.915V107.461ZM65.915 105.526H65.4479V104.524H65.915V105.526ZM65.915 103.523H65.4479V102.522H65.915V103.523ZM65.915 101.588H65.4479V100.586H65.915V101.588ZM65.915 99.652H65.4479V98.6508H65.915V99.652ZM65.915 97.7163H65.4479V96.7819H65.915V97.7163ZM65.915 95.7807H65.4479V94.7795H65.915V95.7807ZM65.915 93.8451H65.4479V92.8439H65.915V93.8451ZM65.915 91.9094H65.4479V90.9082H65.915V91.9094ZM65.915 25.8308H65.4479V24.8963H65.915V25.8308ZM65.915 23.8951H65.4479V22.9607H65.915V23.8951ZM65.915 21.9595H65.4479V21.025H65.915V21.9595ZM65.915 20.0238H65.4479V19.0894H65.915V20.0238ZM65.915 18.0215H65.4479V17.087H65.915V18.0215ZM65.915 16.0858H65.4479V15.1514H65.915V16.0858ZM65.915 14.1502H65.4479V13.2157H65.915V14.1502ZM65.915 12.2145H65.4479V11.6138H65.915V12.2145Z" fill="white"/>
<path d="M11.3416 90.975L11.0748 90.5745L11.8754 90.0405L12.1422 90.441L11.3416 90.975ZM12.9428 89.8403L12.6759 89.4398L13.4765 88.9058L13.7434 89.3063L12.9428 89.8403ZM14.544 88.7723L14.2771 88.3719L15.0777 87.8379L15.3446 88.2384L14.544 88.7723ZM16.1452 87.7044L15.8783 87.3039L16.6789 86.77L16.9457 87.1704L16.1452 87.7044ZM17.6796 86.5697L17.4128 86.1692L18.2133 85.6353L18.4802 86.0357L17.6796 86.5697ZM19.3475 85.435L19.0806 85.0346L19.8812 84.5006L20.1481 84.9011L19.3475 85.435ZM20.9487 84.3003L20.6818 83.8999L21.4824 83.3659L21.7493 83.7664L20.9487 84.3003ZM22.5498 83.2324L22.283 82.8319L23.0836 82.298L23.3504 82.6984L22.5498 83.2324ZM24.151 82.0977L23.8842 81.6973L24.6847 81.1633L24.9516 81.5638L24.151 82.0977ZM104.01 26.9654L103.743 26.565L104.543 26.031L104.81 26.4315L104.01 26.9654ZM105.611 25.8307L105.344 25.4303L106.144 24.8963L106.411 25.2968L105.611 25.8307ZM107.212 24.7628L106.945 24.3623L107.746 23.8284L108.012 24.2288L107.212 24.7628ZM108.813 23.6281L108.546 23.2276L109.347 22.6937L109.614 23.0942L108.813 23.6281ZM110.414 22.5602L110.147 22.1597L110.948 21.6257L111.215 22.0262L110.414 22.5602ZM112.015 21.4255L111.749 21.025L112.549 20.4911L112.816 20.8915L112.015 21.4255ZM113.617 20.3576L113.35 19.9571L114.084 19.3564L114.35 19.7569L113.617 20.3576ZM115.218 19.2229L114.951 18.8224L115.751 18.2884L116.018 18.6889L115.218 19.2229ZM116.752 18.1549L116.485 17.7545L117.286 17.2205L117.553 17.621L116.752 18.1549ZM118.353 17.0203L118.087 16.6198L118.887 16.0858L119.154 16.4863L118.353 17.0203ZM119.955 15.8856L119.688 15.4851L120.488 14.9511L120.755 15.3516L119.955 15.8856ZM121.556 14.8176L121.289 14.4172L122.089 13.8832L122.356 14.2837L121.556 14.8176ZM123.157 13.683L122.89 13.2825L123.691 12.7485L123.957 13.149L123.157 13.683ZM124.758 12.615L124.491 12.2145L125.292 11.6806L125.559 12.081L124.758 12.615ZM126.359 11.4803L126.092 11.0799L126.893 10.5459L127.16 10.9464L126.359 11.4803ZM127.96 10.4124L127.694 10.0119L128.494 9.47795L128.761 9.87843L127.96 10.4124ZM129.562 9.27771L129.295 8.87723L130.095 8.34326L130.362 8.74374L129.562 9.27771ZM131.163 8.20977L130.896 7.8093L131.696 7.27533L131.963 7.6758L131.163 8.20977ZM132.764 7.07509L132.497 6.67461L133.298 6.14064L133.565 6.54112L132.764 7.07509ZM134.365 6.00715L134.098 5.60667L134.899 5.0727L135.166 5.47318L134.365 6.00715ZM135.966 4.87247L135.699 4.47199L136.5 3.93802L136.767 4.3385L135.966 4.87247ZM137.567 3.80453L137.301 3.40405L138.101 2.87008L138.368 3.27056L137.567 3.80453ZM139.169 2.66984L138.902 2.26937L139.702 1.7354L139.969 2.13588L139.169 2.66984ZM140.77 1.53516L140.503 1.13468L141.304 0.600715L141.57 1.00119L140.77 1.53516ZM142.371 0.467223L142.104 0.0667461L142.171 0L142.438 0.400477L142.371 0.467223Z" fill="white"/>
<path d="M26.3526 102.522L26.0858 102.122L26.8864 101.588L27.1532 101.988L26.3526 102.522ZM27.9538 101.454L27.687 101.054L28.4875 100.52L28.7544 100.92L27.9538 101.454ZM29.555 100.386L29.2881 99.9857L30.0887 99.4517L30.3556 99.8522L29.555 100.386ZM31.1562 99.2515L30.8893 98.851L31.6899 98.3171L31.9567 98.7175L31.1562 99.2515ZM32.7573 98.1168L32.4905 97.7163L33.2911 97.1824L33.5579 97.5828L32.7573 98.1168ZM34.3585 97.0489L34.0916 96.6484L34.8922 96.1144L35.1591 96.5149L34.3585 97.0489ZM35.9597 95.9142L35.6928 95.5137L36.4934 94.9798L36.7603 95.3802L35.9597 95.9142ZM37.5609 94.7795L37.294 94.379L38.0946 93.8451L38.3614 94.2455L37.5609 94.7795ZM39.162 93.7116L38.8952 93.3111L39.6957 92.7771L39.9626 93.1776L39.162 93.7116ZM40.7632 92.5769L40.4963 92.1764L41.2969 91.6424L41.5638 92.0429L40.7632 92.5769ZM119.087 38.5125L118.82 38.112L119.621 37.5781L119.888 37.9785L119.087 38.5125ZM120.622 37.3778L120.355 36.9774L121.155 36.4434L121.422 36.8439L120.622 37.3778ZM122.223 36.3099L121.956 35.9094L122.757 35.3754L123.023 35.7759L122.223 36.3099ZM123.824 35.1752L123.557 34.7747L124.358 34.2408L124.625 34.6412L123.824 35.1752ZM125.425 34.1073L125.158 33.7068L125.959 33.1728L126.226 33.5733L125.425 34.1073ZM127.026 32.9726L126.76 32.5721L127.56 32.0381L127.827 32.4386L127.026 32.9726ZM128.628 31.9046L128.361 31.5042L129.161 30.9702L129.428 31.3707L128.628 31.9046ZM130.229 30.77L129.962 30.3695L130.762 29.8355L131.029 30.236L130.229 30.77ZM131.83 29.702L131.563 29.3016L132.364 28.7676L132.631 29.1681L131.83 29.702ZM133.431 28.5673L133.164 28.1669L133.965 27.6329L134.232 28.0334L133.431 28.5673ZM135.032 27.4994L134.765 27.0989L135.566 26.565L135.833 26.9654L135.032 27.4994ZM136.633 26.3647L136.367 25.9642L137.167 25.4303L137.434 25.8308L136.633 26.3647ZM138.235 25.2968L137.968 24.8963L138.768 24.3623L139.035 24.7628L138.235 25.2968ZM143.705 21.7592L143.438 21.3588L144.239 20.8248L144.506 21.2253L143.705 21.7592ZM145.306 20.6246L145.04 20.2241L145.84 19.6901L146.107 20.0906L145.306 20.6246ZM146.908 19.5566L146.641 19.1561L147.441 18.6222L147.708 19.0226L146.908 19.5566ZM148.509 18.4219L148.242 18.0215L149.043 17.4875L149.309 17.888L148.509 18.4219ZM150.11 17.354L149.843 16.9535L150.644 16.4195L150.911 16.82L150.11 17.354ZM151.711 16.2861L151.444 15.8856L151.511 15.8188L151.778 16.2193L151.711 16.2861Z" fill="white"/>
<path d="M26.2859 102.856L25.7522 102.055L26.9531 101.254L27.4868 102.055L26.2859 102.856ZM26.4194 102.188L26.8196 101.921L26.4194 102.188ZM27.8871 101.788L27.3534 100.987L28.5543 100.186L29.088 100.987L27.8871 101.788ZM28.0205 101.12L28.4208 100.853L28.0205 101.12ZM29.4883 100.653L28.9545 99.8522L30.1554 99.0513L30.6891 99.8522L29.4883 100.653ZM29.6217 99.9857L30.022 99.7187L29.6217 99.9857ZM31.0894 99.5852L30.5557 98.7843L31.7566 97.9833L32.2903 98.7843L31.0894 99.5852ZM31.2229 98.9178L31.6232 98.6508L31.2229 98.9178ZM32.6906 98.5173L32.1569 97.7163L33.3578 96.8486L33.8915 97.6496L32.6906 98.5173ZM32.824 97.8498L33.2243 97.5828L32.824 97.8498ZM34.2918 97.3826L33.7581 96.5816L34.9589 95.7807L35.4927 96.5816L34.2918 97.3826ZM34.4252 96.7151L34.8255 96.4482L34.4252 96.7151ZM35.893 96.3147L35.3592 95.447L36.5601 94.646L37.0938 95.447L35.893 96.3147ZM36.0264 95.6472L36.4267 95.3802L36.0264 95.6472ZM37.4941 95.18L36.9604 94.379L38.1613 93.5781L38.695 94.3123L37.4941 95.18ZM37.6276 94.5125L38.0279 94.2455L37.6276 94.5125ZM39.0953 94.112L38.5616 93.3111L39.7625 92.5101L40.2962 93.3111L39.0953 94.112ZM39.2287 93.4446L39.629 93.1776L39.2287 93.4446ZM40.6965 93.0441L40.1628 92.2431L41.3636 91.3087L41.8974 92.1097L40.6965 93.0441ZM40.8299 92.3766L41.2302 92.1097L40.8299 92.3766ZM119.021 38.9797L118.487 38.1788L119.688 37.3778L120.221 38.1788L119.021 38.9797ZM120.622 37.8451L120.088 37.0441L121.289 36.2431L121.823 37.0441L120.622 37.8451ZM122.156 36.7104L121.622 35.9094L122.823 35.1085L123.357 35.9094L122.156 36.7104ZM123.757 35.6424L123.224 34.8415L124.424 34.0405L124.958 34.8415L123.757 35.6424ZM123.891 34.975L124.291 34.708L123.891 34.975ZM125.425 34.441L124.891 33.6401L126.092 32.8391L126.626 33.6401L125.425 34.441ZM127.026 33.3063L126.493 32.5054L127.694 31.7044L128.227 32.5054L127.026 33.3063ZM128.628 32.2384L128.094 31.4374L129.295 30.6365L129.828 31.4374L128.628 32.2384ZM128.761 31.5709L129.161 31.3039L128.761 31.5709ZM130.229 31.1037L129.695 30.3027L130.896 29.5018L131.43 30.3027L130.229 31.1037ZM131.763 30.0358L131.229 29.2348L132.43 28.4339L132.964 29.2348L131.763 30.0358ZM133.364 28.9011L132.831 28.1001L134.032 27.2992L134.565 28.1001L133.364 28.9011ZM134.966 27.8331L134.432 27.0322L135.633 26.2312L136.166 27.0322L134.966 27.8331ZM136.567 26.6985L136.033 25.8975L137.234 25.0965L137.768 25.8975L136.567 26.6985ZM138.168 25.6305L137.634 24.8296L138.835 24.0286L139.369 24.8296L138.168 25.6305ZM143.639 22.093L143.105 21.292L144.306 20.4911L144.839 21.292L143.639 22.093ZM145.24 20.9583L144.706 20.1573L145.907 19.3564L146.441 20.1573L145.24 20.9583ZM146.841 19.8903L146.307 19.0894L147.508 18.2884L148.042 19.0894L146.841 19.8903ZM148.442 18.7557L147.908 17.9547L149.109 17.1538L149.643 17.9547L148.442 18.7557ZM150.043 17.6877L149.51 16.8868L150.71 16.0191L151.244 16.82L150.043 17.6877ZM151.644 16.553L151.111 15.7521L151.644 15.4184L152.178 16.2193L151.644 16.553Z" fill="white"/>
<path d="M130.496 90.6412H5.80425V91.1085H130.496V90.6412Z" fill="white"/>
<path d="M41.0301 88.5054C44.6994 90.174 48.7023 91.0417 52.7053 90.9082C55.4406 90.9082 58.176 90.5078 60.7779 89.6401C63.1796 88.8391 65.4479 87.7044 67.4494 86.1693C69.3842 84.7009 71.1188 82.9654 72.5198 81.0298C73.9208 79.0942 74.9883 76.9583 75.7889 74.6889L70.7185 71.7521C69.5176 74.9559 67.4494 77.6925 64.7141 79.7616C61.912 81.764 58.5762 82.832 55.1738 82.6985C53.239 82.6985 51.3043 82.4315 49.5029 81.8308C47.3013 81.0966 45.4333 79.6949 44.0323 77.8927L34.8255 84.3004C36.6936 85.969 38.8284 87.3707 41.0301 88.5054Z" fill="white"/>
<path d="M51.7045 27.5661C53.3724 27.5661 54.9736 27.6996 56.5748 28.1001C57.8424 28.4338 59.0432 28.9011 60.2441 29.5018C61.1781 29.969 62.0454 30.6365 62.7793 31.3707C63.3798 31.9714 63.9135 32.6389 64.3138 33.3731L64.4472 33.64H65.7815V28.5673H75.055V47.2563H65.7148V43.7187C65.8482 40.8486 64.7141 38.0453 62.5792 36.0429C60.511 34.1073 57.5088 33.1728 53.6393 33.1728C49.5696 33.1728 46.3006 34.5077 43.9655 37.0441C41.6305 39.5805 40.4963 43.652 40.4963 49.0584V67.0799C40.4296 69.4827 40.8299 71.9523 41.5638 74.2217C41.5638 74.2884 41.5638 74.2884 41.6305 74.3552C42.0308 75.5566 42.6312 76.6913 43.3651 77.7592L34.8922 83.6329C34.1584 82.8987 33.4245 82.1645 32.824 81.3635C32.5572 81.0298 32.357 80.6961 32.0902 80.3623L31.8233 79.9619C29.9553 77.3588 28.4875 74.4219 27.5535 71.3516C26.3526 67.3468 25.7522 63.1418 25.7522 58.9368C25.6855 54.3313 26.4193 49.7259 27.8871 45.3206C29.088 41.7163 31.0227 38.3123 33.5579 35.4422C35.8262 32.8391 38.695 30.8367 41.8306 29.435C44.9663 28.1669 48.302 27.4994 51.7045 27.5661ZM51.7045 27.0322C48.2353 27.0322 44.8328 27.7664 41.6972 29.1013C38.4949 30.503 35.5594 32.5721 33.2243 35.1752C30.6891 38.112 28.6877 41.5161 27.4201 45.1871C25.8856 49.5924 25.1518 54.2646 25.2852 59.0036C25.2185 63.2753 25.8856 67.4803 27.0865 71.5518C28.0205 74.6889 29.4883 77.6257 31.423 80.2956C31.7566 80.7628 32.0902 81.23 32.4237 81.6973C33.1576 82.6317 33.9582 83.4327 34.8255 84.2336L44.0322 77.826C43.1649 76.6913 42.4978 75.4231 42.0308 74.0882C42.0308 74.0882 42.0308 74.0882 42.0308 74.0215C41.2969 71.7521 40.8966 69.3492 40.9633 67.0131V49.1251C40.9633 43.7855 42.0975 39.9142 44.2991 37.4446C46.5007 34.975 49.6364 33.7068 53.5726 33.7068C57.3754 33.7068 60.2441 34.6412 62.1789 36.4434C64.1803 38.3123 65.2478 40.9821 65.1144 43.7187V47.7235H75.3886V28.1001H65.2478V33.1728H64.7141C64.3138 32.3719 63.78 31.6377 63.1129 31.0369C62.3123 30.236 61.445 29.5685 60.4443 29.1013C59.2434 28.5006 57.9758 27.9666 56.7082 27.6329C55.0403 27.2324 53.3724 27.0322 51.7045 27.0322Z" fill="white"/>
<path d="M115.952 28.2336L96.871 41.4493V76.1573C96.871 79.4946 96.3372 81.8975 95.2031 83.2992C94.0689 84.7008 92.401 85.3683 90.1327 85.3683C89.6657 85.3683 89.132 85.3683 88.6649 85.3016C88.1979 85.2348 87.6642 85.1681 87.1972 85.0346V84.5673C87.9311 84.1669 88.4648 83.4994 88.7984 82.7652C89.2654 81.8308 89.4655 80.7628 89.4655 79.6949C89.5323 78.0262 88.8651 76.4911 87.5975 75.3564C86.3299 74.2217 84.5953 73.5542 82.8607 73.621C80.5924 73.621 78.8578 74.3552 77.6569 75.7569C76.456 77.0918 75.8556 78.8272 75.8556 80.6293C75.7889 83.4994 77.1232 86.236 79.3915 87.9714C81.7265 89.907 85.3959 90.8415 90.3996 90.8415C93.6686 90.9082 97.0044 90.441 100.14 89.3731C102.609 88.5721 104.81 87.1704 106.678 85.3683C108.346 83.6329 109.614 81.497 110.347 79.2277C111.081 76.6913 111.482 74.0215 111.482 71.3516V32.9726H117.753V27.0322L115.952 28.2336Z" fill="white"/>
<path d="M107.412 32.3719L106.945 32.7056L88.5982 45.3874V37.3778H80.0587V32.3719H107.412ZM108.946 31.9046H79.5249V37.845H88.0645V46.3218L107.212 33.1061L108.946 31.9046Z" fill="white"/>
<path d="M67.2493 54.4648L66.7823 53.7974C66.4487 53.3301 65.7815 53.1967 65.3145 53.5304L65.1811 53.6639L65.0477 53.4636C62.3123 49.9261 57.709 48.3909 53.4392 49.5924H53.3724L53.3057 49.5256C53.1056 49.3254 52.8387 49.1919 52.5719 49.1919C52.3717 49.1919 52.1716 49.2586 51.9714 49.3921L47.9685 52.1955C47.5682 52.5292 47.4348 53.0632 47.6349 53.5304L47.7016 53.6639L47.6349 53.7306C45.033 57.4017 44.9663 62.2074 47.368 65.9452L47.5015 66.1454L47.3013 66.2121C47.1012 66.3456 46.901 66.6126 46.901 66.8796C46.8343 67.1466 46.901 67.4136 47.1012 67.6806L47.5682 68.348C47.9018 68.8152 48.5689 68.9487 49.0359 68.615L67.1158 55.9332C67.316 55.7998 67.5161 55.5328 67.5829 55.2658C67.5161 54.9321 67.4494 54.6651 67.2493 54.4648ZM47.7683 54.2646L47.9018 54.0644L52.1048 60.0715C52.1716 60.1383 52.1716 60.1383 52.2383 60.1383C52.305 60.1383 52.3717 60.1383 52.3717 60.0715C52.4384 60.0715 52.4384 60.0048 52.5051 59.938C52.5051 59.8713 52.5051 59.8045 52.4384 59.8045L48.0352 53.3969C47.9685 53.2634 47.9018 53.1299 47.9018 52.9297C47.9018 52.7962 48.0352 52.6627 48.1686 52.5292L50.0367 51.261L55.3072 58.8033C55.3739 58.8701 55.5073 58.9368 55.5741 58.8701C55.6408 58.8033 55.7075 58.6698 55.6408 58.5363L50.3702 50.994L52.2383 49.7259C52.5051 49.5256 52.9054 49.5924 53.0389 49.8593L57.5088 56.267C57.5755 56.3337 57.709 56.4005 57.8424 56.3337C57.9758 56.267 57.9758 56.1335 57.9091 56L53.706 49.9928L53.9729 49.9261C57.9758 48.9249 62.2456 50.3933 64.7808 53.6639L64.9142 53.7974L64.7808 53.9309L47.7683 65.8784L47.6349 65.7449C45.4333 62.2074 45.4333 57.6686 47.7683 54.2646ZM66.7823 55.5328L48.7024 68.2145C48.4355 68.4148 48.0352 68.348 47.8351 68.081L47.368 67.4136C47.3013 67.2801 47.2346 67.1466 47.2346 66.9464C47.2346 66.8129 47.368 66.6794 47.5015 66.5459L65.5814 53.7974C65.8482 53.5971 66.2485 53.6639 66.382 53.9309L66.849 54.5983C67.1158 54.9321 67.0491 55.3325 66.7823 55.5328Z" fill="white"/>
<path d="M67.0491 55.1323C67.0491 55.2658 66.9157 55.466 66.7823 55.5328L48.7023 68.2145C48.4355 68.4148 48.0352 68.348 47.835 68.081L47.368 67.4136C47.3013 67.2801 47.2346 67.1466 47.2346 66.9464C47.2346 66.8129 47.368 66.6794 47.5015 66.5459L65.5814 53.7974C65.8482 53.5971 66.2485 53.6639 66.382 53.9309L66.849 54.5983C66.9824 54.7986 67.0491 54.9988 67.0491 55.1323Z" fill="white"/>
<path d="M64.8475 53.8641L64.7141 53.9976L47.7683 65.8784L47.6349 65.7449C45.3666 62.2741 45.4333 57.7354 47.7683 54.2646L47.9018 54.0644L52.1048 60.0715C52.1716 60.1383 52.1716 60.1383 52.2383 60.1383C52.305 60.1383 52.3717 60.1383 52.3717 60.0715C52.4384 60.0715 52.4384 60.0048 52.5051 59.938C52.5051 59.8713 52.5051 59.8045 52.4384 59.8045L48.0352 53.3969C47.9685 53.2634 47.9018 53.1299 47.9018 52.9297C47.9018 52.7962 48.0352 52.6627 48.1686 52.5292L50.0367 51.261L55.3072 58.8033C55.3739 58.8701 55.5073 58.9368 55.574 58.8701C55.6408 58.8033 55.7075 58.6698 55.6408 58.5364L50.3702 50.994L52.2383 49.7259C52.5051 49.5256 52.9054 49.5924 53.0389 49.8594L57.5088 56.267C57.5755 56.3337 57.7089 56.4005 57.8424 56.3337C57.9758 56.267 57.9758 56.1335 57.9091 56L53.706 49.9928L53.9729 49.9261C57.9758 48.9249 62.2456 50.3933 64.7808 53.6639L64.8475 53.8641Z" fill="white"/>
<path d="M146.174 24.9631L144.773 22.8939C144.573 22.6269 144.239 22.5602 143.972 22.7604L143.572 23.0274L142.171 20.9583C142.104 20.8248 141.904 20.8248 141.771 20.8915C141.637 20.9583 141.637 21.1585 141.704 21.292L143.105 23.3611L140.837 24.8296L137.234 19.3564L139.502 17.888L140.77 19.8236C140.837 19.9571 141.037 19.9571 141.17 19.8903C141.304 19.8236 141.304 19.6234 141.237 19.4899L139.969 17.5542L141.57 16.4863C142.771 15.6853 143.172 14.0167 142.371 12.8153L140.303 9.74493C139.502 8.47676 137.834 8.14303 136.633 8.94398L128.161 14.5507C127.76 14.8176 127.627 15.2849 127.694 15.6853V15.7521L124.691 17.7545C124.158 18.0882 124.024 18.8224 124.291 19.3564L124.358 19.4231L123.023 20.2908C122.156 20.8915 121.889 22.0262 122.49 22.9607L122.623 23.2277L120.088 24.8963C119.955 24.963 119.955 25.1633 120.021 25.2968C120.088 25.4303 120.288 25.4303 120.422 25.3635L122.957 23.6949L123.09 23.9619C123.691 24.8296 124.825 25.0965 125.759 24.4958L127.093 23.6281L127.16 23.6949C127.56 24.2288 128.294 24.3623 128.828 24.0286L131.83 22.0262L131.897 22.093C132.23 22.36 132.764 22.36 133.164 22.1597L135.499 20.6246L135.566 20.758C135.699 21.1585 135.766 21.6257 135.766 22.0262C135.766 22.5602 135.833 23.0942 136.1 23.3611C136.767 23.9619 137.301 23.6949 138.702 22.7604L138.768 22.6937L140.436 25.23L138.702 26.3647C137.834 26.8987 137.634 28.0334 138.168 28.9011L138.835 29.969C139.035 30.236 139.369 30.3027 139.636 30.1025L145.974 25.8975C146.307 25.6305 146.374 25.23 146.174 24.9631ZM136.9 9.34446C137.901 8.677 139.235 8.94398 139.836 9.94517L141.904 13.0155C142.571 14.0167 142.304 15.3516 141.304 15.9523L140.97 16.2193L136.567 9.5447L136.9 9.34446ZM125.492 23.9619C124.891 24.3623 124.024 24.2288 123.624 23.6281L123.023 22.6937C122.623 22.093 122.757 21.2253 123.357 20.8248L124.691 19.9571L125.625 21.3588L124.625 22.0262C124.491 22.093 124.491 22.2932 124.558 22.4267C124.625 22.5602 124.825 22.5602 124.958 22.4934L125.959 21.826L126.893 23.2277L125.492 23.9619ZM128.561 23.4946C128.227 23.6949 127.827 23.6281 127.627 23.3611C127.627 23.3611 127.627 23.3611 127.627 23.2944L124.891 19.0894C124.691 18.8224 124.758 18.3552 125.025 18.1549C125.025 18.1549 125.025 18.1549 125.092 18.1549L126.026 17.4875L129.562 22.8272L128.561 23.4946ZM132.831 21.6257C132.63 21.7592 132.297 21.6925 132.097 21.4923L130.629 19.2896C130.562 19.1561 130.362 19.1561 130.229 19.2229C130.095 19.2896 130.095 19.4899 130.162 19.6234L131.43 21.6257L129.895 22.6269L126.359 17.2872L127.894 16.2861L129.095 18.0882C129.161 18.2217 129.361 18.2217 129.495 18.1549C129.628 18.0882 129.628 17.888 129.562 17.7545L128.161 15.6853C128.027 15.4184 128.094 15.1514 128.294 14.9511L135.966 9.94517L140.369 16.6198L132.831 21.6257ZM138.435 22.1597C137.1 23.0274 136.834 23.1609 136.5 22.8272C136.367 22.6937 136.367 22.36 136.367 21.8927C136.367 21.3588 136.3 20.8248 136.1 20.2908L136.033 20.2241L136.9 19.6234L138.568 22.1597H138.435ZM139.302 29.5018L138.635 28.4338C138.235 27.8331 138.435 27.0322 138.968 26.6317L144.306 23.0942L145.707 25.23L139.302 29.5018Z" fill="white"/>
<path d="M140.503 16.553L132.831 21.6257C132.63 21.7592 132.297 21.6925 132.097 21.4923L130.629 19.2896C130.562 19.1561 130.362 19.1561 130.229 19.2229C130.095 19.2896 130.095 19.4899 130.162 19.6234L131.43 21.6257L129.895 22.6269L126.359 17.2872L127.894 16.2861L129.095 18.0882C129.161 18.2217 129.361 18.2217 129.495 18.1549C129.628 18.0882 129.628 17.888 129.562 17.7545L128.161 15.6853C128.027 15.4184 128.094 15.1514 128.294 14.9511L135.966 9.94517L140.503 16.553Z" fill="white"/>
<path d="M58.7764 66.9464L54.4399 70.0167C53.9729 70.3504 53.8394 70.9511 54.173 71.4183L55.107 72.7533C55.1737 72.82 55.3072 72.8868 55.3739 72.82C55.4406 72.82 55.4406 72.7533 55.4406 72.6865C55.4406 72.6198 55.4406 72.553 55.4406 72.553L54.5066 71.2181C54.3064 70.9511 54.3732 70.5506 54.64 70.3504L58.9765 67.2801C59.0432 67.2801 59.0432 67.2133 59.0432 67.1466C59.0432 67.0798 59.0432 67.0131 59.0432 67.0131C58.9765 66.8796 58.8431 66.8796 58.7097 66.8796C58.7764 66.8796 58.7764 66.8796 58.7764 66.9464Z" fill="white"/>
<path d="M70.4516 58.9368C70.3849 58.8701 70.2515 58.8033 70.1848 58.8701L68.717 59.938L68.5836 59.8045C67.9164 59.2038 66.9824 59.1371 66.2485 59.671L52.8387 69.0822C51.9714 69.683 51.7713 70.8176 52.3717 71.6853L52.5051 71.8188L51.0374 72.8868C50.9707 72.9535 50.904 73.087 50.9707 73.1538L52.8387 75.8236C52.9054 75.8903 53.0389 75.9571 53.1056 75.8903L54.64 74.7557L54.7735 74.8224C55.7075 75.5566 56.9751 75.6234 57.9758 74.8892L59.9773 73.4875C61.445 72.4195 62.2456 70.6841 62.1122 68.882C62.1122 68.7485 62.1789 68.5483 62.2456 68.4148C62.379 68.2813 62.5125 68.2145 62.6459 68.2145C62.7126 68.2145 62.846 68.2145 62.9128 68.2813C64.5806 69.0155 66.4487 68.8153 67.9831 67.8141L69.9846 66.4124C71.0521 65.6782 71.4523 64.2098 70.8519 63.0083L70.7852 62.8749L72.2529 61.8069C72.3197 61.7402 72.3864 61.6067 72.3197 61.4732L70.4516 58.9368ZM70.1848 59.4041L70.6518 60.0715L69.3175 61.006L68.8504 60.3385L70.1848 59.4041ZM51.371 73.1538L52.7053 72.2193L53.1723 72.8868L51.838 73.8212L51.371 73.1538ZM52.9721 75.4899L52.0381 74.1549L53.3724 73.2205L54.3065 74.5554L52.9721 75.4899ZM69.7177 66.2122L67.7163 67.6138C66.382 68.5483 64.5806 68.7485 63.1129 68.081C62.846 67.9476 62.5792 67.9476 62.3123 68.081C62.0455 68.2145 61.8453 68.348 61.7786 68.615C61.7119 68.7485 61.7119 68.9487 61.7119 69.0822C61.8453 70.7509 61.0447 72.3528 59.7104 73.2872L57.7089 74.6889C57.3087 74.9559 56.9084 75.0894 56.4413 75.0894C55.7075 75.0894 55.0403 74.7557 54.5733 74.1549L52.7053 71.4851C52.2383 70.8176 52.3717 69.9499 53.0389 69.4827L66.4487 60.0715C67.1158 59.6043 67.9831 59.7378 68.4501 60.4052L70.3182 63.0751C70.9853 64.0763 70.7852 65.4779 69.7177 66.2122ZM70.5183 62.6079L69.5843 61.2729L70.9186 60.3385L71.8526 61.6734L70.5183 62.6079Z" fill="white"/>
<path d="M60.044 66.2789C60.044 66.3456 60.1107 66.3456 60.1774 66.3456C60.2441 66.3456 60.3109 66.3456 60.3109 66.2789L60.978 65.8117C61.0447 65.8117 61.0447 65.7449 61.0447 65.6782C61.0447 65.6114 61.0447 65.5447 61.0447 65.5447C60.978 65.4779 60.8446 65.4112 60.7779 65.4779L60.1107 65.9452C60.044 66.0119 59.9773 66.1454 60.044 66.2789Z" fill="white"/>
<path d="M21.1488 103.79L13.61 93.1108C13.2764 92.7104 12.7427 92.5769 12.2757 92.8439L11.0748 93.7116L10.4743 92.9106C10.4076 92.8439 10.4076 92.8439 10.3409 92.7771C10.2742 92.7771 10.2075 92.7771 10.1408 92.8439C10.074 92.9106 10.074 92.9106 10.0073 92.9773C10.0073 93.0441 10.0073 93.1108 10.074 93.1776L10.6745 93.9785L9.4736 94.8462C9.07331 95.18 8.93988 95.7807 9.27345 96.1812L9.54032 96.5816L8.73973 97.1824C8.20601 97.5161 8.07258 98.2503 8.47287 98.7843C8.6063 98.9178 8.73973 99.0513 8.93988 99.1847L9.00659 99.2515L8.93988 99.3182L7.739 100.186C7.47214 100.386 7.3387 100.653 7.27199 100.92C7.13856 101.521 7.53885 102.188 8.20601 102.255C8.53958 102.322 8.80645 102.255 9.07331 102.055L11.9421 99.9857V100.052L12.6092 100.987C12.6759 101.054 12.6759 101.054 12.7427 101.054C12.8094 101.054 12.8761 101.054 12.9428 100.987C13.0762 100.92 13.0762 100.72 13.0095 100.653L12.7427 100.253H12.8094C13.0095 100.253 13.2097 100.186 13.4098 100.052L14.7441 99.118V99.1847C14.7441 99.385 14.8108 99.5852 14.9443 99.7855C15.3446 100.319 16.0784 100.453 16.6122 100.052L17.4795 99.4517V99.5185L20.6818 104.124C20.8152 104.324 20.7485 104.591 20.5484 104.725L17.7463 106.727C17.5462 106.861 17.2793 106.794 17.1459 106.594L13.8101 101.855C13.7434 101.721 13.61 101.654 13.4765 101.721C13.3431 101.788 13.2764 101.921 13.3431 102.055C13.3431 102.055 13.3431 102.122 13.4098 102.122L16.7456 106.861C16.879 107.061 17.1459 107.194 17.346 107.261C17.6129 107.328 17.8798 107.261 18.0799 107.128L19.2808 106.26L19.8812 107.128C19.9479 107.194 19.9479 107.328 19.9479 107.395C19.9479 107.461 19.8812 107.595 19.8145 107.595L17.2793 109.397C17.0125 109.597 16.7456 109.597 16.4787 109.397L9.74046 104.057C9.54032 103.857 9.20674 103.857 8.93988 104.057L8.47287 104.391V104.324L7.67228 103.19C7.53885 102.989 7.3387 102.856 7.07184 102.856C6.93841 102.856 6.80498 102.923 6.67155 102.989L6.33797 103.256C6.07111 103.456 5.93768 103.857 6.13782 104.191V104.257H6.07111L1.13416 107.061C0.0667108 107.661 -0.333582 109.063 0.333573 110.131C0.400289 110.198 0.400288 110.265 0.467004 110.331C1.20088 111.333 2.6019 111.6 3.60263 110.865C3.66935 110.799 3.73607 110.732 3.80278 110.732L5.27052 109.397C5.33724 109.33 5.33724 109.263 5.33724 109.197C5.33724 109.13 5.33724 109.063 5.27052 108.996C5.20381 108.93 5.13709 108.93 5.07038 108.93C5.00366 108.93 4.93694 108.93 4.87023 108.996L3.33577 110.331C3.00219 110.665 2.46847 110.799 2.00146 110.732C1.53445 110.665 1.06744 110.465 0.733866 109.998C0.200142 109.197 0.333573 108.129 1.13416 107.595C1.20088 107.595 1.20087 107.528 1.26759 107.528L6.27126 104.725L7.60557 106.594L6.00439 108.195C5.93768 108.262 5.93768 108.329 5.93768 108.396C5.93768 108.462 5.93768 108.529 6.00439 108.596C6.07111 108.663 6.13783 108.663 6.20454 108.663C6.27126 108.663 6.33797 108.663 6.40469 108.596L8.13929 107.061L8.20601 107.128C8.47287 107.461 8.87316 107.528 9.20674 107.328L9.54032 107.061C9.87389 106.794 9.94061 106.393 9.74046 106.06L8.87316 104.858L9.34017 104.524C9.40689 104.458 9.4736 104.458 9.4736 104.524L16.2119 109.797C16.6122 110.131 17.2126 110.131 17.6129 109.864L20.1481 108.062C20.5484 107.795 20.6151 107.261 20.3482 106.861L19.7478 105.993L20.9487 105.125C21.349 104.791 21.4824 104.191 21.1488 103.79ZM8.80645 98.584C8.6063 98.317 8.67301 97.9166 8.93988 97.6496L9.74046 97.0489V97.1156L10.4743 98.1168L9.67375 98.7175C9.54032 98.7843 9.40689 98.851 9.27345 98.851H9.14002C9.07331 98.7843 8.87316 98.7175 8.80645 98.584ZM11.5418 99.652L8.67302 101.654C8.53958 101.721 8.40615 101.788 8.27272 101.788C7.87243 101.788 7.60557 101.454 7.67228 101.054C7.67228 100.853 7.739 100.72 7.93914 100.586L10.8079 98.5173V98.584L11.5418 99.652ZM16.2786 99.7187C16.1452 99.7855 16.0117 99.8522 15.8783 99.8522C15.6781 99.8522 15.478 99.7187 15.3446 99.5852C15.2111 99.4517 15.2111 99.2515 15.2111 99.0512C15.2111 98.851 15.3446 98.7175 15.478 98.584C15.6114 98.5173 15.6781 98.3838 15.6114 98.2503C15.5447 98.1168 15.4113 98.0501 15.2779 98.1168C15.2779 98.1168 15.2111 98.1168 15.2111 98.1836L13.0762 99.7187C12.8094 99.9189 12.3424 99.8522 12.1422 99.5852L9.60703 96.0477C9.54032 95.9809 9.4736 95.8474 9.54032 95.7139C9.54032 95.5804 9.60703 95.5137 9.74046 95.447L12.5425 93.4446C12.7427 93.3111 13.0095 93.3778 13.143 93.5781L17.1459 99.1847L16.2786 99.7187ZM9.20674 106.393C9.27346 106.46 9.27345 106.594 9.14002 106.66L8.80645 106.927C8.73973 106.927 8.73973 106.994 8.67302 106.994C8.6063 106.994 8.53958 106.927 8.53958 106.927L6.53812 104.124C6.4714 104.057 6.4714 103.99 6.4714 103.99C6.4714 103.924 6.53812 103.857 6.53812 103.857L6.8717 103.59C6.93841 103.59 7.00513 103.523 7.00513 103.523C7.07184 103.523 7.13856 103.59 7.13856 103.59L9.20674 106.393Z" fill="white"/>
<path d="M10.5411 98.1168L9.74046 98.7175C9.60703 98.7843 9.4736 98.851 9.34017 98.851H9.20674C9.00659 98.851 8.87316 98.7175 8.80645 98.584C8.6063 98.317 8.67301 97.9166 8.93988 97.6496L9.74046 97.0489V97.1156L10.5411 98.1168Z" fill="white"/>
<path d="M11.6085 99.5852L8.73973 101.588C8.6063 101.654 8.47287 101.721 8.33944 101.721C7.93915 101.721 7.67228 101.387 7.739 100.987C7.739 100.787 7.80571 100.653 8.00586 100.52L10.8746 98.4505V98.5173L11.6085 99.5852Z" fill="white"/>
<path d="M17.1459 99.0512L16.2786 99.652C16.1452 99.7187 16.0117 99.7855 15.8783 99.7855C15.6782 99.7855 15.478 99.652 15.3446 99.5185C15.2111 99.385 15.2111 99.1847 15.2111 98.9845C15.2111 98.7843 15.3446 98.6508 15.478 98.5173C15.6114 98.4505 15.6782 98.317 15.6114 98.1836C15.5447 98.0501 15.4113 97.9833 15.2779 98.0501C15.2779 98.0501 15.2111 98.0501 15.2111 98.1168L13.0762 99.652C12.8094 99.8522 12.3424 99.7855 12.1422 99.5185L9.60704 95.9809C9.54032 95.9142 9.47361 95.7807 9.54032 95.6472C9.54032 95.5137 9.60704 95.447 9.74047 95.3802L12.5425 93.3778C12.7427 93.2443 13.0095 93.3111 13.143 93.5113L17.1459 99.0512Z" fill="white"/>
<path d="M132.831 56.3337H134.365V44.1192H132.831V42.7175H140.636C141.504 42.7175 142.238 42.7843 142.905 42.9845C143.505 43.1847 144.039 43.385 144.439 43.7187C144.839 44.0524 145.173 44.3862 145.373 44.8534C145.573 45.2539 145.64 45.7211 145.64 46.2551C145.64 46.789 145.573 47.2563 145.373 47.6567C145.173 48.0572 144.973 48.3909 144.639 48.6579C144.306 48.9249 143.972 49.1919 143.572 49.3921C143.172 49.5924 142.771 49.7259 142.371 49.7926V49.9261C142.771 49.9929 143.238 50.1263 143.705 50.2598C144.172 50.4601 144.573 50.6603 144.973 50.994C145.373 51.3278 145.64 51.6615 145.907 52.1287C146.174 52.5959 146.24 53.0632 146.24 53.6639C146.24 54.9988 145.84 56.0667 144.973 56.7342C144.106 57.4684 142.838 57.8021 141.037 57.8021H132.831V56.3337ZM137.834 49.2586H139.836C141.304 49.2586 142.037 48.5912 142.037 47.1895V46.2551C142.037 44.9201 141.304 44.1859 139.836 44.1859H137.834V49.2586ZM137.834 56.2002H140.236C141.037 56.2002 141.637 56 142.037 55.5995C142.438 55.199 142.705 54.6651 142.705 53.9309V52.9297C142.705 52.1955 142.504 51.6615 142.037 51.261C141.637 50.8605 141.037 50.6603 140.236 50.6603H137.834V56.2002Z" fill="white"/>
<path d="M151.378 58.0024C150.177 58.0024 149.243 57.7354 148.709 57.1347C148.175 56.534 147.908 55.7998 147.908 54.7318C147.908 52.5292 149.576 51.3945 152.845 51.3945H154.38V50.1931C154.38 49.3254 154.246 48.6579 153.913 48.1907C153.579 47.7235 152.979 47.5232 152.178 47.5232C151.845 47.5232 151.644 47.5232 151.378 47.59C151.177 47.6567 150.977 47.7235 150.844 47.7902V47.9237C150.977 47.9905 151.111 48.124 151.244 48.3242C151.378 48.5244 151.444 48.7914 151.444 49.0584C151.444 49.4589 151.311 49.8594 151.044 50.1263C150.777 50.3933 150.377 50.5936 149.843 50.5936C149.443 50.5936 149.043 50.4601 148.776 50.1263C148.509 49.7926 148.375 49.4589 148.375 48.9917C148.375 48.6579 148.509 48.3242 148.709 47.9905C148.909 47.6567 149.243 47.323 149.643 47.1228C150.043 46.8558 150.577 46.6555 151.111 46.522C151.644 46.3886 152.378 46.2551 153.179 46.2551C154.78 46.2551 155.914 46.5888 156.648 47.2563C157.382 47.9237 157.782 48.8582 157.782 50.1263V56.4005H159.05V57.6019C158.783 57.7354 158.516 57.8689 158.116 57.9356C157.716 58.0024 157.315 58.0691 156.915 58.0691C156.114 58.0691 155.581 57.8689 155.247 57.5352C154.913 57.2014 154.78 56.7342 154.78 56.1335V56.0667H154.647C154.513 56.3337 154.446 56.534 154.246 56.8009C154.113 57.0012 153.913 57.2682 153.646 57.4017C153.379 57.5352 153.112 57.7354 152.779 57.8689C152.245 57.9356 151.845 58.0024 151.378 58.0024ZM152.578 56.0667C153.112 56.0667 153.512 55.9333 153.846 55.733C154.18 55.466 154.313 55.0655 154.313 54.4648V52.7294H153.179C152.512 52.7294 151.978 52.8629 151.644 53.1299C151.311 53.3969 151.111 53.7974 151.111 54.3313V54.7318C151.111 55.199 151.244 55.5328 151.511 55.733C151.778 55.9333 152.178 56.0667 152.578 56.0667Z" fill="white"/>
<path d="M163.92 57.9356C163.053 57.9356 162.452 57.7354 161.985 57.3349C161.585 56.9344 161.385 56.4005 161.385 55.6663V47.9237H159.85V46.3886H160.451C160.918 46.3886 161.251 46.2551 161.518 46.0548C161.718 45.8546 161.985 45.5209 162.185 45.1204L163.119 43.2515H164.721V46.3886H167.189V47.9237H164.721V56.267H167.189V57.5352C166.989 57.6686 166.522 57.7354 165.988 57.8021C165.388 57.9356 164.721 57.9356 163.92 57.9356Z" fill="white"/>
<path d="M168.523 56.3337H169.791V48.5912L168.523 48.3242V47.1228L173.127 46.1883V56.3337H174.394V57.7354H168.523V56.3337ZM171.459 44.9201C170.858 44.9201 170.391 44.7866 170.058 44.4529C169.724 44.1192 169.524 43.652 169.524 43.118V42.9845C169.524 42.4505 169.724 41.9833 170.058 41.6496C170.391 41.3159 170.858 41.1824 171.459 41.1824C172.059 41.1824 172.526 41.3159 172.86 41.6496C173.194 41.9833 173.394 42.4505 173.394 42.9845V43.118C173.394 43.652 173.194 44.1192 172.86 44.4529C172.526 44.7866 172.059 44.9201 171.459 44.9201Z" fill="white"/>
<path d="M138.168 78.6269C137.234 78.6269 136.433 78.4934 135.699 78.2932C134.966 78.093 134.432 77.826 133.898 77.4255C133.431 77.0918 133.098 76.6246 132.831 76.0906C132.564 75.5566 132.497 75.0226 132.497 74.4219C132.497 73.888 132.564 73.354 132.764 72.9535C132.964 72.4863 133.231 72.1526 133.565 71.7521C133.898 71.4184 134.298 71.0846 134.765 70.8176C135.232 70.5507 135.766 70.2837 136.3 70.0167L136.1 69.8164C135.699 69.3492 135.299 68.8153 135.032 68.2145C134.699 67.6138 134.565 67.0131 134.565 66.3457C134.565 65.8117 134.699 65.3445 134.899 64.944C135.099 64.5435 135.433 64.143 135.9 63.876C136.3 63.6091 136.834 63.3421 137.367 63.2086C137.968 63.0751 138.568 63.0083 139.235 63.0083C139.902 63.0083 140.503 63.0751 141.103 63.2086C141.637 63.3421 142.171 63.4756 142.571 63.7426C142.971 64.0095 143.305 64.2765 143.505 64.677C143.705 65.0107 143.839 65.478 143.839 65.9452C143.839 66.4124 143.705 66.8129 143.505 67.2133C143.305 67.5471 142.971 67.8808 142.638 68.2145C142.304 68.4815 141.837 68.7485 141.37 69.0155C140.903 69.2825 140.436 69.4827 139.969 69.683L143.572 73.9547C143.972 73.2205 144.239 72.3528 144.372 71.3516H142.971V69.9499H147.441V71.3516H146.04C145.84 72.6865 145.373 73.9547 144.706 75.1561L145.507 76.0906C145.773 76.4243 146.107 76.6913 146.441 76.8248C146.774 76.9583 147.241 77.025 147.775 77.025V78.4267H145.04C144.506 78.4267 144.106 78.36 143.705 78.1597C143.305 77.9595 142.971 77.7592 142.571 77.3588C141.971 77.7592 141.37 78.093 140.636 78.2932C139.902 78.4934 139.035 78.6269 138.168 78.6269ZM139.302 76.9583C140.103 76.9583 140.903 76.758 141.57 76.2908L137.234 71.1514C136.834 71.4851 136.567 71.8856 136.433 72.2861C136.3 72.6865 136.233 73.1538 136.233 73.6877V74.2217C136.233 74.6222 136.3 74.9559 136.433 75.2896C136.567 75.6234 136.767 75.8903 137.1 76.1573C137.367 76.4243 137.701 76.6246 138.101 76.758C138.435 76.8915 138.835 76.9583 139.302 76.9583ZM139.235 68.8153C139.636 68.5483 139.969 68.2145 140.236 67.8141C140.503 67.4136 140.57 66.9464 140.57 66.4791V66.0787C140.57 65.6114 140.436 65.211 140.236 64.944C140.036 64.677 139.636 64.5435 139.169 64.5435C138.702 64.5435 138.368 64.677 138.101 64.944C137.901 65.211 137.768 65.6114 137.768 66.0787V66.4124C137.768 66.8129 137.901 67.1466 138.101 67.5471C138.435 67.8808 138.768 68.2813 139.235 68.8153Z" fill="white"/>
<path d="M153.979 76.9583H155.514V64.7437H153.979V63.3421H162.452C163.119 63.3421 163.72 63.4088 164.254 63.5423C164.787 63.6758 165.321 63.9428 165.721 64.2098C166.122 64.5435 166.455 64.944 166.655 65.4112C166.856 65.8784 166.989 66.4791 166.989 67.1466C166.989 67.6806 166.922 68.1478 166.722 68.5483C166.522 68.9487 166.322 69.3492 165.988 69.683C165.655 70.0167 165.321 70.2837 164.921 70.4839C164.521 70.6841 164.053 70.8844 163.586 70.9511L166.389 75.6234C166.655 76.0906 166.989 76.4243 167.256 76.6245C167.523 76.8248 167.923 76.8915 168.39 76.8915H168.523V78.2932H166.455C165.922 78.2932 165.521 78.2264 165.121 78.1597C164.721 78.093 164.387 77.9595 164.12 77.7592C163.853 77.559 163.586 77.3587 163.386 77.0918C163.186 76.8248 162.986 76.491 162.786 76.1573L160.451 71.5518H158.85V76.8248H160.384V78.2264H153.846V76.9583H153.979ZM158.983 70.2169H161.118C162.652 70.2169 163.453 69.5495 163.453 68.1478V66.8796C163.453 65.5447 162.652 64.8105 161.118 64.8105H158.983V70.2169Z" fill="white"/>
<path d="M174.728 78.6269C173.861 78.6269 173.06 78.4934 172.393 78.1597C171.726 77.8927 171.125 77.4255 170.658 76.9583C170.191 76.4243 169.858 75.8236 169.591 75.0894C169.324 74.3552 169.257 73.5542 169.257 72.6865C169.257 71.7521 169.391 70.9511 169.658 70.2169C169.924 69.4827 170.258 68.882 170.725 68.348C171.192 67.8141 171.726 67.4803 172.393 67.2133C173.06 66.9464 173.794 66.8129 174.595 66.8129C175.395 66.8129 176.129 66.9464 176.796 67.1466C177.463 67.4136 177.997 67.7473 178.464 68.2145C178.931 68.6818 179.265 69.2157 179.532 69.8832C179.798 70.5506 179.865 71.2181 179.865 72.0191V72.7533H172.793V73.621C172.793 74.6222 173.06 75.3564 173.527 75.8236C174.061 76.2908 174.728 76.5578 175.529 76.5578C176.329 76.5578 176.93 76.3576 177.397 76.0238C177.864 75.6901 178.197 75.2229 178.397 74.7557L179.598 75.4899C179.465 75.8236 179.265 76.2241 179.065 76.5578C178.798 76.9583 178.531 77.292 178.13 77.559C177.73 77.8927 177.263 78.093 176.729 78.2932C176.062 78.5602 175.462 78.6269 174.728 78.6269ZM172.727 71.4184H176.463V71.0846C176.463 70.0167 176.329 69.2825 175.996 68.882C175.662 68.4815 175.195 68.2813 174.661 68.2813C174.061 68.2813 173.661 68.4815 173.327 68.882C172.993 69.2825 172.86 70.0167 172.86 71.0846V71.4184H172.727Z" fill="white"/>
<path d="M181.4 76.9583H182.667V69.2825L181.4 69.0155V67.8141L185.936 66.8796V69.0155H186.07C186.27 68.4148 186.603 67.9475 187.137 67.5471C187.671 67.1466 188.338 66.8796 189.272 66.8796C190.673 66.8796 191.607 67.2133 192.207 67.9476C192.808 68.6818 193.075 69.6829 193.075 71.0846V77.025H194.342V78.4267H188.605V77.025H189.806V71.1514C189.806 70.4172 189.672 69.8164 189.405 69.5495C189.139 69.2157 188.672 69.0822 188.071 69.0822C187.804 69.0822 187.604 69.0822 187.337 69.149C187.07 69.2157 186.87 69.2825 186.67 69.4827C186.47 69.6829 186.336 69.8164 186.203 70.0167C186.07 70.2169 186.003 70.4839 186.003 70.7509V77.025H187.204V78.4267H181.466V76.9583H181.4Z" fill="white"/>
<path d="M201.214 78.6269C200.413 78.6269 199.68 78.4934 199.012 78.2265C198.345 77.9595 197.745 77.559 197.278 77.0918C196.811 76.5578 196.411 75.9571 196.144 75.2229C195.877 74.4887 195.743 73.621 195.743 72.6865C195.743 71.7521 195.877 70.8844 196.144 70.1502C196.411 69.416 196.744 68.8153 197.278 68.2813C197.745 67.7473 198.345 67.4136 199.012 67.1466C199.68 66.8796 200.413 66.7461 201.214 66.7461C202.015 66.7461 202.749 66.8796 203.416 67.1466C204.083 67.4136 204.683 67.8141 205.15 68.2813C205.617 68.8153 206.018 69.416 206.284 70.1502C206.551 70.8844 206.685 71.7521 206.685 72.6865C206.685 73.621 206.551 74.4887 206.284 75.2229C206.018 75.9571 205.684 76.5578 205.15 77.0918C204.683 77.6257 204.083 77.9595 203.416 78.2265C202.749 78.4934 202.015 78.6269 201.214 78.6269ZM201.214 77.0918C202.548 77.0918 203.216 76.2908 203.216 74.6889V70.6841C203.216 69.0822 202.548 68.2813 201.214 68.2813C199.88 68.2813 199.213 69.0822 199.213 70.6841V74.6889C199.213 76.2908 199.88 77.0918 201.214 77.0918Z" fill="white"/>
<path d="M208.286 68.4815H207.285V67.0799H212.956V68.4815H211.755L214.157 75.5566H214.29L216.492 68.4815H215.291V67.0799H219.294V68.4815H218.16L214.49 78.36H211.955L208.286 68.4815Z" fill="white"/>
<path d="M223.163 78.6269C221.963 78.6269 221.029 78.3599 220.495 77.7592C219.961 77.1585 219.694 76.4243 219.694 75.3564C219.694 73.1537 221.362 72.0191 224.631 72.0191H226.166V70.8176C226.166 69.9499 226.032 69.2825 225.699 68.8152C225.365 68.348 224.765 68.1478 223.964 68.1478C223.63 68.1478 223.43 68.1478 223.163 68.2145C222.963 68.2813 222.763 68.348 222.63 68.4148V68.5483C222.763 68.615 222.897 68.7485 223.03 68.9487C223.163 69.149 223.23 69.416 223.23 69.6829C223.23 70.0834 223.097 70.4839 222.83 70.7509C222.563 71.0179 222.163 71.2181 221.629 71.2181C221.229 71.2181 220.828 71.0846 220.562 70.7509C220.295 70.4172 220.161 70.0834 220.161 69.6162C220.161 69.2825 220.295 68.9487 220.495 68.615C220.695 68.2813 221.029 67.9475 221.429 67.7473C221.829 67.4803 222.363 67.2801 222.897 67.1466C223.43 67.0131 224.164 66.8796 224.965 66.8796C226.566 66.8796 227.7 67.2133 228.434 67.8808C229.168 68.5483 229.568 69.4827 229.568 70.7509V77.025H230.836V78.2264C230.569 78.3599 230.302 78.4934 229.902 78.5602C229.501 78.6269 229.101 78.6937 228.701 78.6937C227.9 78.6937 227.367 78.4934 227.033 78.1597C226.699 77.826 226.566 77.3587 226.566 76.758V76.6913H226.433C226.299 76.9583 226.232 77.1585 226.032 77.4255C225.899 77.6257 225.699 77.8927 225.432 78.0262C225.165 78.1597 224.898 78.3599 224.564 78.4934C224.031 78.5602 223.63 78.6269 223.163 78.6269ZM224.364 76.6913C224.898 76.6913 225.298 76.5578 225.632 76.3576C225.966 76.0906 226.099 75.6901 226.099 75.0894V73.354H224.965C224.298 73.354 223.764 73.4875 223.43 73.7545C223.097 74.0214 222.897 74.4219 222.897 74.9559V75.2896C222.897 75.7568 223.03 76.0906 223.297 76.2908C223.564 76.5578 223.964 76.6913 224.364 76.6913Z" fill="white"/>
<path d="M235.706 78.5602C234.839 78.5602 234.238 78.36 233.771 77.9595C233.371 77.559 233.171 77.025 233.171 76.2908V68.5483H231.636V67.0131H232.237C232.704 67.0131 233.037 66.8796 233.304 66.6794C233.504 66.4791 233.771 66.1454 233.971 65.7449L234.905 63.876H236.507V67.0131H238.975V68.5483H236.507V76.8915H238.975V78.1597C238.775 78.2932 238.308 78.36 237.774 78.4267C237.174 78.5602 236.507 78.5602 235.706 78.5602Z" fill="white"/>
<path d="M240.309 76.9583H241.577V69.2825L240.309 69.0155V67.8141L244.913 66.8796V77.025H246.18V78.4267H240.309V76.9583ZM243.245 65.5447C242.644 65.5447 242.177 65.4112 241.844 65.0775C241.51 64.7437 241.31 64.2765 241.31 63.7426V63.6091C241.31 63.0751 241.51 62.6079 241.844 62.2741C242.177 61.9404 242.644 61.8069 243.245 61.8069C243.845 61.8069 244.312 61.9404 244.646 62.2741C244.979 62.6079 245.18 63.0751 245.18 63.6091V63.7426C245.18 64.2765 244.979 64.7437 244.646 65.0775C244.312 65.4112 243.845 65.5447 243.245 65.5447Z" fill="white"/>
<path d="M253.052 78.6269C252.251 78.6269 251.518 78.4934 250.85 78.2265C250.183 77.9595 249.583 77.559 249.116 77.0918C248.649 76.5578 248.249 75.9571 247.982 75.2229C247.715 74.4887 247.581 73.621 247.581 72.6865C247.581 71.7521 247.715 70.8844 247.982 70.1502C248.249 69.416 248.582 68.8153 249.116 68.2813C249.583 67.7473 250.183 67.4136 250.85 67.1466C251.518 66.8796 252.251 66.7461 253.052 66.7461C253.853 66.7461 254.586 66.8796 255.254 67.1466C255.921 67.4136 256.521 67.8141 256.988 68.2813C257.455 68.8153 257.856 69.416 258.122 70.1502C258.389 70.8844 258.523 71.7521 258.523 72.6865C258.523 73.621 258.389 74.4887 258.122 75.2229C257.856 75.9571 257.522 76.5578 256.988 77.0918C256.521 77.6257 255.921 77.9595 255.254 78.2265C254.586 78.4934 253.853 78.6269 253.052 78.6269ZM253.052 77.0918C254.386 77.0918 255.053 76.2908 255.053 74.6889V70.6841C255.053 69.0822 254.386 68.2813 253.052 68.2813C251.718 68.2813 251.051 69.0822 251.051 70.6841V74.6889C251.051 76.2908 251.718 77.0918 253.052 77.0918Z" fill="white"/>
<path d="M260.124 76.9583H261.391V69.2825L260.124 69.0155V67.8141L264.661 66.8796V69.0155H264.794C264.994 68.4148 265.328 67.9475 265.861 67.5471C266.395 67.1466 267.062 66.8796 267.996 66.8796C269.397 66.8796 270.331 67.2133 270.932 67.9476C271.532 68.6818 271.799 69.6829 271.799 71.0846V77.025H273.067V78.4267H267.329V77.025H268.53V71.1514C268.53 70.4172 268.397 69.8164 268.13 69.5495C267.863 69.2157 267.396 69.0822 266.795 69.0822C266.529 69.0822 266.328 69.0822 266.062 69.149C265.795 69.2157 265.595 69.2825 265.394 69.4827C265.194 69.6829 265.061 69.8164 264.927 70.0167C264.794 70.2169 264.727 70.4839 264.727 70.7509V77.025H265.928V78.4267H260.191V76.9583H260.124Z" fill="white"/>
</svg>
