<svg viewBox="0 0 35 35" fill="none" xmlns="http://www.w3.org/2000/svg">
<g>
<path d="M31.9971 4.07062H3.8363C2.18256 4.07062 0.833374 5.41833 0.833374 7.07355V27.0931C0.833374 28.7427 2.17655 30.096 3.8363 30.096H31.9971C33.6467 30.096 35 28.7528 35 27.0931V7.07355C35 5.42394 33.6569 4.07062 31.9971 4.07062ZM31.5824 6.07257L17.9804 19.6747L4.26065 6.07257H31.5824ZM2.83533 26.6785V7.47854L12.4767 17.0372L2.83533 26.6785ZM4.25091 28.0941L13.8983 18.4466L17.2788 21.798C17.6701 22.186 18.3015 22.1848 18.6913 21.795L21.9873 18.4989L31.5825 28.0941H4.25091ZM32.9981 26.6785L23.4029 17.0833L32.9981 7.48809V26.6785Z" fill="white"/>
</g>

</svg>
