<svg  viewBox="0 0 35 35" fill="none" xmlns="http://www.w3.org/2000/svg">
<g>
<path d="M26.0406 0.00710895L21.6099 0C16.6322 0 13.4154 3.30033 13.4154 8.40846V12.2853H8.96059C8.57564 12.2853 8.26392 12.5974 8.26392 12.9824V18.5995C8.26392 18.9844 8.576 19.2962 8.96059 19.2962H13.4154V33.47C13.4154 33.8549 13.7271 34.1667 14.1121 34.1667H19.9244C20.3093 34.1667 20.621 33.8546 20.621 33.47V19.2962H25.8298C26.2147 19.2962 26.5265 18.9844 26.5265 18.5995L26.5286 12.9824C26.5286 12.7975 26.455 12.6205 26.3246 12.4897C26.1941 12.3589 26.0164 12.2853 25.8316 12.2853H20.621V8.99886C20.621 7.41925 20.9975 6.61736 23.0552 6.61736L26.0398 6.6163C26.4244 6.6163 26.7362 6.30421 26.7362 5.91962V0.703786C26.7362 0.319547 26.4248 0.00781984 26.0406 0.00710895Z" fill="white"/>
</g>
</svg>
