<svg viewBox="0 0 35 35" fill="none" xmlns="http://www.w3.org/2000/svg">
<g>
<path d="M17.0892 8.31097C12.2447 8.31097 8.32263 12.2373 8.32263 17.0776C8.32263 21.9221 12.249 25.8442 17.0892 25.8442C21.9338 25.8442 25.8558 21.9178 25.8558 17.0776C25.8558 12.233 21.9295 8.31097 17.0892 8.31097ZM17.0892 22.7677C13.9445 22.7677 11.3991 20.2209 11.3991 17.0776C11.3991 13.9342 13.9459 11.3874 17.0892 11.3874C20.2326 11.3874 22.7794 13.9342 22.7794 17.0776C22.7808 20.2209 20.234 22.7677 17.0892 22.7677Z" fill="white"/>
<path d="M24.1276 0.107626C20.9842 -0.0390055 13.1985 -0.0318874 10.0523 0.107626C7.28767 0.237175 4.84902 0.904849 2.88301 2.87086C-0.402681 6.15655 0.0172848 10.584 0.0172848 17.0771C0.0172848 23.7225 -0.352854 28.0474 2.88301 31.2833C6.18152 34.5804 10.673 34.149 17.0892 34.149C23.672 34.149 25.9441 34.1533 28.2717 33.2521C31.4364 32.0236 33.8252 29.1949 34.0587 24.114C34.2067 20.9692 34.1982 13.1849 34.0587 10.0387C33.7768 4.04107 30.558 0.403738 24.1276 0.107626ZM29.1031 29.1094C26.9492 31.2634 23.961 31.0712 17.0479 31.0712C9.92989 31.0712 7.07555 31.1765 4.99281 29.0881C2.59402 26.7007 3.02822 22.8669 3.02822 17.0543C3.02822 9.18884 2.22104 3.52429 10.115 3.11999C11.9286 3.05593 12.4625 3.03457 17.028 3.03457L17.0921 3.07728C24.6785 3.07728 30.6306 2.2829 30.9879 10.1754C31.0691 11.9763 31.0876 12.5172 31.0876 17.0756C31.0862 24.1111 31.22 26.9826 29.1031 29.1094Z" fill="white"/>
</g>

</svg>
